<svg xmlns="http://www.w3.org/2000/svg" width="256" height="256" viewBox="0 0 256 256" role="img" aria-label="Sun dashboard emoji style favicon">
  <defs>
    <linearGradient id="sunCore" x1="0" x2="1" y1="0" y2="1">
      <stop offset="0" stop-color="#FFE98A"/>
      <stop offset="1" stop-color="#FDBA32"/>
    </linearGradient>
    <linearGradient id="panelBg" x1="0" x2="0" y1="0" y2="1">
      <stop offset="0" stop-color="#FFFFFF"/>
      <stop offset="1" stop-color="#ECF3FF"/>
    </linearGradient>
    <filter id="softShadow" x="-20%" y="-20%" width="140%" height="140%">
      <feDropShadow dx="0" dy="6" stdDeviation="5" flood-color="#0F172A" flood-opacity="0.24"/>
    </filter>
  </defs>

  <g transform="translate(52 34)">
    <g stroke="#F59E0B" stroke-width="8" stroke-linecap="round" opacity="0.95">
      <line x1="48" y1="0" x2="48" y2="16"/>
      <line x1="48" y1="112" x2="48" y2="128"/>
      <line x1="0" y1="64" x2="16" y2="64"/>
      <line x1="96" y1="64" x2="112" y2="64"/>
      <line x1="15" y1="17" x2="26" y2="28"/>
      <line x1="81" y1="101" x2="92" y2="112"/>
      <line x1="15" y1="111" x2="26" y2="100"/>
      <line x1="81" y1="27" x2="92" y2="16"/>
    </g>
    <circle cx="48" cy="64" r="38" fill="url(#sunCore)" stroke="#F59E0B" stroke-width="6"/>
    <circle cx="34" cy="58" r="4" fill="#7C4A00"/>
    <circle cx="62" cy="58" r="4" fill="#7C4A00"/>
    <path d="M34 78c4 7 10 11 14 11s10-4 14-11" fill="none" stroke="#7C4A00" stroke-width="5" stroke-linecap="round"/>
  </g>

  <g filter="url(#softShadow)" transform="translate(96 96)">
    <rect x="0" y="0" width="136" height="116" rx="24" fill="url(#panelBg)" stroke="#CBD5E1" stroke-width="4"/>
    <g transform="translate(20 16)">
      <path d="M0 74H96" stroke="#94A3B8" stroke-width="4" stroke-linecap="round"/>
      <rect x="8" y="42" width="18" height="32" rx="6" fill="#22C55E"/>
      <rect x="38" y="26" width="18" height="48" rx="6" fill="#38BDF8"/>
      <rect x="68" y="14" width="18" height="60" rx="6" fill="#6366F1"/>
      <path d="M8 48C24 36 36 35 47 29C58 23 67 20 85 20" fill="none" stroke="#0F766E" stroke-width="4" stroke-linecap="round"/>
      <circle cx="85" cy="20" r="4" fill="#0F766E"/>
    </g>
  </g>
</svg>
